<svg xmlns="http://www.w3.org/2000/svg" xml:space="preserve" viewBox="0 0 24 24"><circle cx="12" cy="6" r="1" fill="white"/>
  <path fill="white" d="M12 18.5a.75.75 0 0 1-.75-.75V10.5h-1a.75.75 0 0 1 0-1.5H12a.75.75 0 0 1 .75.75v8a.75.75 0 0 1-.75.75z"/>
  <path fill="white"
    d="M21.25 24H2.75A2.752 2.752 0 0 1 0 21.25V2.75A2.752 2.752 0 0 1 2.75 0h18.5A2.752 2.752 0 0 1 24 2.75v18.5A2.752 2.752 0 0 1 21.25 24zM2.75 1.5c-.689 0-1.25.561-1.25 1.25v18.5c0 .689.561 1.25 1.25 1.25h18.5c.689 0 1.25-.561 1.25-1.25V2.75c0-.689-.561-1.25-1.25-1.25H2.75z"/>
  <path fill="white" d="M14.25 18.5h-4.5a.75.75 0 0 1 0-1.5h4.5a.75.75 0 0 1 0 1.5z"/>
</svg>
