<svg xmlns="http://www.w3.org/2000/svg" xml:space="preserve" viewBox="0 0 24 24">
  <path fill="white" d="M12 16a.749.749 0 0 1-.542-.232l-5.25-5.5A.75.75 0 0 1 6.75 9H9.5V3.25c0-.689.561-1.25 1.25-1.25h2.5c.689 0 1.25.561 1.25 1.25V9h2.75a.75.75 0 0 1 .542 1.268l-5.25 5.5A.749.749 0 0 1 12 16zm-3.497-5.5L12 14.164l3.497-3.664H13.75a.75.75 0 0 1-.75-.75V3.5h-2v6.25a.75.75 0 0 1-.75.75H8.503zM22.25 22H1.75C.785 22 0 21.215 0 20.25v-.5C0 18.785.785 18 1.75 18h20.5c.965 0 1.75.785 1.75 1.75v.5c0 .965-.785 1.75-1.75 1.75zm-20.5-2.5a.25.25 0 0 0-.25.25v.5c0 .138.112.25.25.25h20.5a.25.25 0 0 0 .25-.25v-.5a.25.25 0 0 0-.25-.25H1.75z"/></svg>
